<svg xmlns="http://www.w3.org/2000/svg" width="20" height="20" viewBox="0 0 48 48" aria-hidden="true" focusable="false">
  <path fill="#FFC107" d="M43.611 20.083H42V20H24v8h11.303C33.788 32.91 29.273 36 24 36c-6.627 0-12-5.373-12-12s5.373-12 12-12c3.059 0 5.842 1.156 7.957 3.043l5.657-5.657C34.651 6.053 29.614 4 24 4 12.955 4 4 12.955 4 24s8.955 20 20 20 20-8.955 20-20c0-1.342-.138-2.651-.389-3.917z"/>
  <path fill="#FF3D00" d="M6.306 14.691l6.571 4.819C14.631 16.108 18.994 12 24 12c3.059 0 5.842 1.156 7.957 3.043l5.657-5.657C34.651 6.053 29.614 4 24 4c-7.798 0-14.426 4.437-17.694 10.691z"/>
  <path fill="#4CAF50" d="M24 44c5.166 0 9.86-1.977 13.409-5.197l-6.195-5.238C29.225 35.091 26.75 36 24 36c-5.252 0-9.757-3.071-11.686-7.495l-6.55 4.999C8.005 39.47 15.39 44 24 44z"/>
  <path fill="#1976D2" d="M43.611 20.083H42V20H24v8h11.303c-1.203 3.521-4.27 6.21-8.094 7.481l6.195 5.238C35.064 41.132 40 35.5 40 28c0-2.749-.564-5.358-1.389-7.917z"/>
</svg>
